<svg width="1024" height="1024" viewBox="0 0 1024 1024" fill="none" xmlns="http://www.w3.org/2000/svg">
<path d="M352.562 491L411.132 432.632C414.377 429.467 417.622 428 421.5 428C425.457 428.077 428.782 429.544 431.868 432.632L490.438 491C492.813 493.393 494 496.173 494 499.57C494 506.441 488.38 512 481.415 512C478.012 512 474.767 510.61 472.155 507.985L421.579 457.107L370.924 507.985C368.312 510.533 365.067 512 361.585 512C354.62 512 349 506.441 349 499.57C349 496.25 350.187 493.471 352.562 491Z" fill="white" style="fill:white;fill-opacity:1;"/>
</svg>
