<svg width="1024" height="1024" viewBox="0 0 1024 1024" fill="none" xmlns="http://www.w3.org/2000/svg">
<g clip-path="url(#clip0_1_4)">
<path d="M512 1445C328.704 1445 219.148 1356.5 202.293 1176.88C182.805 962.49 183.331 744.939 203.346 512.111C218.621 343.022 328.704 254 512 254C695.296 254 805.379 343.022 820.654 512.111C840.669 744.939 841.195 962.49 821.707 1176.88C804.852 1356.5 695.296 1445 512 1445ZM512 1360.19C645.785 1360.19 725.319 1303.3 736.906 1176.88C755.868 961.963 755.341 744.412 735.853 512.111C725.845 395.698 645.785 338.808 512 338.808C378.215 338.808 298.155 395.698 288.147 512.111C268.659 744.412 268.132 961.963 287.094 1176.88C298.681 1303.3 378.215 1360.19 512 1360.19Z" fill="white" style="fill:white;fill-opacity:1;"/>
</g>
<defs>
<clipPath id="clip0_1_4">
<rect width="1024" height="1024" fill="white" style="fill:white;fill-opacity:1;"/>
</clipPath>
</defs>
</svg>
